<svg width="561.7900390625px" height="158.03999023437498px" xmlns="http://www.w3.org/2000/svg" viewBox="-30.89501953125 -4.0199951171874915 561.7900390625 158.03999023437498" style="background:#596886" preserveAspectRatio="xMidYMid"><defs><filter id="editing-hover" x="-100%" y="-100%" width="300%" height="300%"><feFlood flood-color="#052b4a" result="flood"></feFlood><feComposite operator="in" in2="SourceAlpha" in="flood" result="shadow"></feComposite><feOffset dx="-4" dy="-4" in="SourceGraphic" result="offset-1"></feOffset><feOffset dx="4" dy="4" in="shadow" result="offset-2"></feOffset><feMerge><feMergeNode in="offset-2"></feMergeNode><feMergeNode in="offset-1"></feMergeNode></feMerge></filter></defs><g filter="url(#editing-hover)"><g transform="translate(52.58500003814697, 105.94000053405762)"><path d="M2.04 0L2.04-4.50L23.63-37.23L23.63-37.23Q26.69-42.16 26.69-46.24L26.69-46.24L26.69-46.24Q26.69-50.58 23.80-53.21L23.80-53.21L23.80-53.21Q20.91-55.85 17.09-55.85L17.09-55.85L17.09-55.85Q13.86-55.85 11.31-53.81L11.31-53.81L11.31-53.81Q8.76-51.77 7.57-48.45L7.57-48.45L3.15-50.15L3.15-50.15Q4.76-54.66 8.29-57.50L8.29-57.50L8.29-57.50Q11.82-60.35 17.09-60.35L17.09-60.35L17.09-60.35Q21.25-60.35 24.61-58.57L24.61-58.57L24.61-58.57Q27.97-56.78 29.84-53.64L29.84-53.64L29.84-53.64Q31.71-50.49 31.71-46.58L31.71-46.58L31.71-46.58Q31.71-41.05 27.97-35.11L27.97-35.11L7.57-4.42L31.88-4.42L31.88 0L2.04 0ZM74.97-15.73L74.97-15.73Q74.97-7.14 69.74-3.10L69.74-3.10L69.74-3.10Q64.52 0.94 57.20 0.94L57.20 0.94L57.20 0.94Q52.62 0.94 48.53-0.72L48.53-0.72L48.53-0.72Q44.45-2.38 41.86-6.12L41.86-6.12L41.86-6.12Q39.27-9.86 39.27-15.73L39.27-15.73L39.27-43.10L39.27-43.10Q39.27-51.85 44.07-56.36L44.07-56.36L44.07-56.36Q48.88-60.86 57.29-60.86L57.29-60.86L57.29-60.86Q65.70-60.86 70.34-56.10L70.34-56.10L70.34-56.10Q74.97-51.34 74.97-43.01L74.97-43.01L74.97-15.73ZM70.30-43.86L70.30-43.86Q70.30-50.07 66.68-53.21L66.68-53.21L66.68-53.21Q63.07-56.36 57.12-56.36L57.12-56.36L57.12-56.36Q51.17-56.36 47.60-53.21L47.60-53.21L47.60-53.21Q44.03-50.07 44.03-43.86L44.03-43.86L44.03-15.81L44.03-15.81Q44.03-9.78 47.73-6.67L47.73-6.67L47.73-6.67Q51.42-3.57 57.12-3.57L57.12-3.57L57.12-3.57Q62.90-3.57 66.60-6.59L66.60-6.59L66.60-6.59Q70.30-9.61 70.30-15.90L70.30-15.90L70.30-43.86ZM84.41-30.43L84.41-35.11L111.61-35.11L111.61-30.43L84.41-30.43ZM156.49-15.73L156.49-15.73Q156.49-7.14 151.26-3.10L151.26-3.10L151.26-3.10Q146.03 0.94 138.72 0.94L138.72 0.94L138.72 0.94Q134.13 0.94 130.05-0.72L130.05-0.72L130.05-0.72Q125.97-2.38 123.38-6.12L123.38-6.12L123.38-6.12Q120.79-9.86 120.79-15.73L120.79-15.73L120.79-43.10L120.79-43.10Q120.79-51.85 125.59-56.36L125.59-56.36L125.59-56.36Q130.39-60.86 138.81-60.86L138.81-60.86L138.81-60.86Q147.22-60.86 151.85-56.10L151.85-56.10L151.85-56.10Q156.49-51.34 156.49-43.01L156.49-43.01L156.49-15.73ZM151.81-43.86L151.81-43.86Q151.81-50.07 148.20-53.21L148.20-53.21L148.20-53.21Q144.59-56.36 138.64-56.36L138.64-56.36L138.64-56.36Q132.69-56.36 129.12-53.21L129.12-53.21L129.12-53.21Q125.55-50.07 125.55-43.86L125.55-43.86L125.55-15.81L125.55-15.81Q125.55-9.78 129.24-6.67L129.24-6.67L129.24-6.67Q132.94-3.57 138.64-3.57L138.64-3.57L138.64-3.57Q144.42-3.57 148.11-6.59L148.11-6.59L148.11-6.59Q151.81-9.61 151.81-15.90L151.81-15.90L151.81-43.86ZM190.74-32.98L190.74-32.98Q195.08-30.60 197.71-26.39L197.71-26.39L197.71-26.39Q200.35-22.19 200.35-17.09L200.35-17.09L200.35-17.09Q200.35-12.16 197.92-7.99L197.92-7.99L197.92-7.99Q195.50-3.83 191.34-1.40L191.34-1.40L191.34-1.40Q187.17 1.02 182.24 1.02L182.24 1.02L182.24 1.02Q177.31 1.02 173.15-1.40L173.15-1.40L173.15-1.40Q168.98-3.83 166.56-7.99L166.56-7.99L166.56-7.99Q164.14-12.16 164.14-17.09L164.14-17.09L164.14-17.09Q164.14-22.27 166.77-26.52L166.77-26.52L166.77-26.52Q169.41-30.77 173.83-33.07L173.83-33.07L173.83-33.07Q170.85-35.11 169.15-38.29L169.15-38.29L169.15-38.29Q167.45-41.48 167.45-45.30L167.45-45.30L167.45-45.30Q167.45-49.39 169.45-52.83L169.45-52.83L169.45-52.83Q171.45-56.27 174.85-58.27L174.85-58.27L174.85-58.27Q178.25-60.27 182.33-60.27L182.33-60.27L182.33-60.27Q186.41-60.27 189.85-58.27L189.85-58.27L189.85-58.27Q193.29-56.27 195.29-52.83L195.29-52.83L195.29-52.83Q197.29-49.39 197.29-45.30L197.29-45.30L197.29-45.30Q197.29-41.48 195.54-38.25L195.54-38.25L195.54-38.25Q193.80-35.02 190.74-32.98L190.74-32.98ZM181.90-35.11L181.90-35.11Q186.49-35.11 189.59-38.08L189.59-38.08L189.59-38.08Q192.70-41.05 192.70-45.30L192.70-45.30L192.70-45.30Q192.70-49.64 189.64-52.70L189.64-52.70L189.64-52.70Q186.58-55.76 182.33-55.76L182.33-55.76L182.33-55.76Q177.99-55.76 174.93-52.70L174.93-52.70L174.93-52.70Q171.87-49.64 171.87-45.30L171.87-45.30L171.87-45.30Q171.87-41.14 174.76-38.21L174.76-38.21L174.76-38.21Q177.65-35.28 181.90-35.11L181.90-35.11ZM181.65-30.43L181.65-30.43Q178.16-30.26 175.23-28.43L175.23-28.43L175.23-28.43Q172.30-26.61 170.60-23.63L170.60-23.63L170.60-23.63Q168.90-20.66 168.90-17.09L168.90-17.09L168.90-17.09Q168.90-13.43 170.68-10.37L170.68-10.37L170.68-10.37Q172.47-7.31 175.53-5.53L175.53-5.53L175.53-5.53Q178.59-3.74 182.24-3.74L182.24-3.74L182.24-3.74Q185.90-3.74 188.96-5.53L188.96-5.53L188.96-5.53Q192.02-7.31 193.80-10.37L193.80-10.37L193.80-10.37Q195.59-13.43 195.59-17.09L195.59-17.09L195.59-17.09Q195.59-20.66 193.80-23.67L193.80-23.67L193.80-23.67Q192.02-26.69 188.87-28.48L188.87-28.48L188.87-28.48Q185.73-30.26 181.65-30.43L181.65-30.43ZM206.21-30.43L206.21-35.11L233.41-35.11L233.41-30.43L206.21-30.43ZM239.28 0L239.28-4.50L260.87-37.23L260.87-37.23Q263.93-42.16 263.93-46.24L263.93-46.24L263.93-46.24Q263.93-50.58 261.04-53.21L261.04-53.21L261.04-53.21Q258.15-55.85 254.32-55.85L254.32-55.85L254.32-55.85Q251.09-55.85 248.54-53.81L248.54-53.81L248.54-53.81Q245.99-51.77 244.80-48.45L244.80-48.45L240.38-50.15L240.38-50.15Q242.00-54.66 245.52-57.50L245.52-57.50L245.52-57.50Q249.05-60.35 254.32-60.35L254.32-60.35L254.32-60.35Q258.49-60.35 261.84-58.57L261.84-58.57L261.84-58.57Q265.20-56.78 267.07-53.64L267.07-53.64L267.07-53.64Q268.94-50.49 268.94-46.58L268.94-46.58L268.94-46.58Q268.94-41.05 265.20-35.11L265.20-35.11L244.80-4.42L269.11-4.42L269.11 0L239.28 0ZM312.21-15.73L312.21-15.73Q312.21-7.14 306.98-3.10L306.98-3.10L306.98-3.10Q301.75 0.94 294.44 0.94L294.44 0.94L294.44 0.94Q289.85 0.94 285.77-0.72L285.77-0.72L285.77-0.72Q281.69-2.38 279.10-6.12L279.10-6.12L279.10-6.12Q276.51-9.86 276.51-15.73L276.51-15.73L276.51-43.10L276.51-43.10Q276.51-51.85 281.31-56.36L281.31-56.36L281.31-56.36Q286.11-60.86 294.53-60.86L294.53-60.86L294.53-60.86Q302.94-60.86 307.57-56.10L307.57-56.10L307.57-56.10Q312.21-51.34 312.21-43.01L312.21-43.01L312.21-15.73ZM307.53-43.86L307.53-43.86Q307.53-50.07 303.92-53.21L303.92-53.21L303.92-53.21Q300.31-56.36 294.36-56.36L294.36-56.36L294.36-56.36Q288.41-56.36 284.84-53.21L284.84-53.21L284.84-53.21Q281.27-50.07 281.27-43.86L281.27-43.86L281.27-15.81L281.27-15.81Q281.27-9.78 284.96-6.67L284.96-6.67L284.96-6.67Q288.66-3.57 294.36-3.57L294.36-3.57L294.36-3.57Q300.14-3.57 303.83-6.59L303.83-6.59L303.83-6.59Q307.53-9.61 307.53-15.90L307.53-15.90L307.53-43.86ZM319.86 0L319.86-4.50L341.45-37.23L341.45-37.23Q344.51-42.16 344.51-46.24L344.51-46.24L344.51-46.24Q344.51-50.58 341.62-53.21L341.62-53.21L341.62-53.21Q338.73-55.85 334.90-55.85L334.90-55.85L334.90-55.85Q331.67-55.85 329.12-53.81L329.12-53.81L329.12-53.81Q326.57-51.77 325.38-48.45L325.38-48.45L320.96-50.15L320.96-50.15Q322.58-54.66 326.10-57.50L326.10-57.50L326.10-57.50Q329.63-60.35 334.90-60.35L334.90-60.35L334.90-60.35Q339.07-60.35 342.42-58.57L342.42-58.57L342.42-58.57Q345.78-56.78 347.65-53.64L347.65-53.64L347.65-53.64Q349.52-50.49 349.52-46.58L349.52-46.58L349.52-46.58Q349.52-41.05 345.78-35.11L345.78-35.11L325.38-4.42L349.69-4.42L349.69 0L319.86 0ZM392.79-15.73L392.79-15.73Q392.79-7.14 387.56-3.10L387.56-3.10L387.56-3.10Q382.33 0.94 375.02 0.94L375.02 0.94L375.02 0.94Q370.43 0.94 366.35-0.72L366.35-0.72L366.35-0.72Q362.27-2.38 359.68-6.12L359.68-6.12L359.68-6.12Q357.09-9.86 357.09-15.73L357.09-15.73L357.09-43.10L357.09-43.10Q357.09-51.85 361.89-56.36L361.89-56.36L361.89-56.36Q366.69-60.86 375.11-60.86L375.11-60.86L375.11-60.86Q383.52-60.86 388.15-56.10L388.15-56.10L388.15-56.10Q392.79-51.34 392.79-43.01L392.79-43.01L392.79-15.73ZM388.11-43.86L388.11-43.86Q388.11-50.07 384.50-53.21L384.50-53.21L384.50-53.21Q380.89-56.36 374.94-56.36L374.94-56.36L374.94-56.36Q368.99-56.36 365.42-53.21L365.42-53.21L365.42-53.21Q361.85-50.07 361.85-43.86L361.85-43.86L361.85-15.81L361.85-15.81Q361.85-9.78 365.54-6.67L365.54-6.67L365.54-6.67Q369.24-3.57 374.94-3.57L374.94-3.57L374.94-3.57Q380.72-3.57 384.41-6.59L384.41-6.59L384.41-6.59Q388.11-9.61 388.11-15.90L388.11-15.90L388.11-43.86Z" fill="#ffd5af"></path></g></g><style>text {
  font-size: 64px;
  font-family: Arial Black;
  dominant-baseline: central;
  text-anchor: middle;
}</style></svg>